<?xml version="1.0" standalone="no"?>
<!DOCTYPE svg PUBLIC "-//W3C//DTD SVG 20010904//EN"
 "http://www.w3.org/TR/2001/REC-SVG-20010904/DTD/svg10.dtd">
<svg version="1.0" xmlns="http://www.w3.org/2000/svg"
 width="500.000000pt" height="500.000000pt" viewBox="0 0 500.000000 500.000000"
 preserveAspectRatio="xMidYMid meet">
<metadata>
Created by potrace 1.14, written by Peter Selinger 2001-2017
</metadata>
<g transform="translate(0.000000,500.000000) scale(0.100000,-0.100000)"
fill="#000000" stroke="none">
<path d="M0 2500 l0 -2500 2500 0 2500 0 0 2500 0 2500 -2500 0 -2500 0 0
-2500z m2946 494 c38 -12 65 -29 90 -57 35 -38 36 -41 32 -106 -2 -50 -9 -74
-25 -95 l-22 -28 20 -27 c11 -16 23 -47 26 -69 7 -54 19 -53 35 1 7 23 22 56
33 73 11 17 47 85 80 152 32 67 65 124 73 127 12 4 255 -29 293 -41 25 -7 33
-39 69 -259 18 -110 34 -202 36 -204 8 -8 13 6 28 69 8 36 19 83 24 105 6 22
18 73 27 114 18 81 37 127 57 134 18 6 184 -40 219 -60 16 -9 31 -23 33 -30 3
-7 -15 -88 -39 -180 -47 -174 -47 -182 0 -183 25 -1 106 -23 122 -33 13 -8 33
39 83 203 34 109 52 145 75 154 29 11 209 -59 238 -92 19 -20 18 -23 -11 -99
-49 -129 -84 -243 -79 -256 2 -7 35 -21 72 -31 95 -27 102 -41 67 -135 -15
-41 -34 -79 -44 -84 -18 -12 -48 -5 -285 70 -77 24 -144 50 -147 58 -2 7 -18
13 -33 13 -48 -1 -388 75 -407 91 -10 8 -99 24 -201 35 -43 5 -85 42 -85 75 0
20 -19 31 -54 31 -16 0 -27 -11 -39 -36 l-17 -36 -63 7 c-34 3 -87 8 -117 9
-55 4 -90 28 -90 63 0 8 -3 13 -7 11 -99 -51 -94 -50 -294 -45 -126 3 -194 8
-203 16 -11 9 -20 9 -35 2 -11 -6 -54 -11 -96 -11 -42 0 -131 -5 -198 -11
l-121 -12 -52 28 -53 29 -39 -27 c-71 -50 -147 -72 -248 -71 -121 1 -172 25
-206 95 -26 56 -38 62 -38 19 0 -58 -50 -128 -121 -172 -70 -44 -210 -61 -304
-37 -51 13 -105 62 -133 123 -11 22 -30 93 -42 156 -12 63 -29 130 -36 149
-20 49 -18 108 4 114 9 3 60 15 112 27 52 12 158 37 235 56 197 48 199 48 215
-37 5 -29 24 -118 41 -196 30 -133 33 -141 51 -130 24 15 18 67 -14 130 -11
23 -23 69 -26 102 -4 54 -1 67 22 103 56 89 157 135 296 136 75 1 94 -3 160
-32 87 -39 86 -38 72 -55 -8 -10 -8 -23 0 -50 10 -32 9 -40 -7 -57 -10 -11
-24 -20 -32 -20 -22 0 -15 -17 16 -39 60 -43 63 -37 59 127 l-3 147 155 3 c85
1 162 4 170 6 8 2 140 2 293 0 228 -2 289 -6 333 -20z m-2174 -319 c14 -44 27
-92 27 -107 1 -15 10 -51 21 -80 11 -29 20 -63 20 -75 0 -28 -37 -57 -95 -73
-53 -15 -53 -18 -23 -113 l23 -69 -23 -18 c-12 -10 -59 -31 -104 -48 -128 -46
-125 -45 -147 -23 -19 19 -181 494 -181 531 0 10 6 23 13 29 29 24 362 130
402 128 l40 -2 27 -80z"/>
<path d="M2234 2969 c-60 -4 -129 -7 -153 -8 l-43 -1 6 -147 c4 -82 9 -199 12
-262 l6 -113 82 7 c44 4 133 10 196 14 l115 6 0 60 0 60 -100 0 -100 0 0 40 0
40 80 3 c44 2 84 7 89 12 5 5 5 29 2 55 l-7 46 -90 -7 -89 -7 0 36 c0 43 9 47
110 47 43 0 80 4 82 10 2 5 1 35 0 65 l-4 56 -43 -3 c-24 -2 -92 -6 -151 -9z"/>
<path d="M2604 2972 c-30 -3 -32 -6 -37 -55 -4 -29 -9 -142 -13 -253 l-7 -201
169 -7 c183 -8 233 1 281 46 55 52 46 150 -17 186 -37 21 -37 28 -2 46 80 41
64 175 -26 213 -36 15 -273 32 -348 25z m224 -128 c25 -17 30 -65 8 -83 -8 -7
-30 -14 -49 -18 -37 -6 -46 4 -42 47 1 14 3 35 4 48 1 17 7 22 29 22 15 0 38
-7 50 -16z m0 -180 c50 -35 11 -110 -55 -102 -31 3 -39 27 -28 84 5 29 10 34
33 34 15 0 38 -7 50 -16z"/>
<path d="M2476 2888 c-3 -35 -6 -108 -6 -162 -1 -79 2 -101 14 -108 19 -11 23
13 31 195 6 132 5 137 -14 137 -16 0 -20 -9 -25 -62z"/>
<path d="M1651 2929 c-66 -13 -143 -60 -169 -105 -18 -31 -22 -50 -19 -92 6
-89 46 -115 206 -136 60 -8 87 -16 95 -29 25 -40 -46 -77 -83 -43 -15 14 -29
14 -104 5 -96 -13 -101 -18 -67 -74 29 -47 74 -65 162 -65 125 0 245 56 275
128 19 46 12 111 -16 151 -25 34 -84 55 -186 66 -83 9 -95 14 -95 36 0 29 42
45 69 27 17 -12 35 -13 103 -4 75 10 83 13 86 34 5 31 -53 87 -103 101 -46 12
-91 13 -154 0z"/>
<path d="M3190 2680 c-66 -134 -119 -245 -116 -247 7 -7 171 -30 184 -25 6 2
16 19 23 39 l11 35 72 -7 c39 -4 73 -9 75 -11 3 -2 7 -23 10 -46 l6 -42 93
-14 c51 -8 96 -11 99 -8 6 6 -72 490 -83 520 -5 13 -67 26 -201 42 l-52 6
-121 -242z m250 9 c3 -121 7 -113 -51 -106 -29 4 -54 8 -56 10 -5 6 54 156 74
186 16 24 16 24 24 5 4 -12 8 -54 9 -95z"/>
<path d="M1177 2840 c-38 -10 -70 -20 -72 -22 -2 -1 15 -78 37 -170 40 -167
43 -210 13 -222 -41 -15 -49 2 -100 229 -15 66 -31 125 -37 131 -6 9 -31 7
-95 -7 -47 -10 -88 -21 -91 -24 -3 -3 13 -84 36 -181 45 -195 67 -240 128
-269 80 -38 194 -28 290 24 106 57 115 114 56 366 l-38 160 -29 2 c-17 1 -61
-7 -98 -17z"/>
<path d="M3836 2822 c-8 -13 -116 -462 -116 -482 0 -15 24 -24 153 -54 140
-32 184 -40 213 -37 6 1 16 25 22 54 13 65 7 71 -90 88 -38 7 -72 18 -75 24
-3 10 39 186 83 342 7 27 -9 36 -100 57 -77 18 -83 19 -90 8z"/>
<path d="M4332 2697 c-19 -23 -165 -478 -156 -487 15 -14 296 -101 333 -103
33 -2 35 0 47 48 8 28 12 55 10 61 -2 6 -38 21 -80 33 -42 12 -78 27 -82 32
-3 5 20 84 52 176 42 121 55 170 47 181 -15 25 -159 74 -171 59z"/>
<path d="M1995 2497 c-4 -10 -5 -21 -1 -24 10 -10 18 4 13 24 -4 17 -4 17 -12
0z"/>
<path d="M520 2663 c-91 -30 -168 -58 -172 -62 -9 -7 136 -469 152 -485 10
-10 190 41 190 54 0 3 -12 41 -26 84 -14 43 -23 84 -21 91 3 6 34 22 69 35 34
13 67 27 72 31 6 6 3 30 -8 64 -20 65 -30 67 -120 30 -65 -27 -76 -25 -76 10
0 20 10 27 80 50 59 20 80 31 80 44 0 31 -32 111 -43 110 -7 0 -86 -25 -177
-56z"/>
</g>
</svg>
